<svg xmlns="http://www.w3.org/2000/svg" width="100mm" height="100mm" viewBox="0 0 283.4646 283.4646"><title>bookends</title><path d="M261.9418,146.4347l-45.87,45.8764V162.2583s0-3.1647,1.5824-4.2116l44.2879-44.2939c1.0559-1.056,1.0559,1.5823,1.0559,1.5823a5.2515,5.2515,0,0,1-.5264,2.1058v24.2528a1.6334,1.6334,0,0,1,.5264,1.0559,7.554,7.554,0,0,1-1.0559,3.6912" style="fill:none;stroke:#000;stroke-linejoin:round;stroke-width:0.75px;stroke-dasharray:3.008284091949463,3.008284091949463,3.008284091949463,3.008284091949463,3.008284091949463,3.008284091949463"/><path d="M66.3372,146.4408l-45.87,45.87V162.27s0-3.1648,1.5824-4.2116l44.288-44.306c1.0559-1.5824,1.5823,1.0559,1.5823,1.0559a5.3087,5.3087,0,0,0-.5264,1.5823v24.2528A1.6334,1.6334,0,0,1,67.92,141.7a15.52,15.52,0,0,1-1.5823,4.7441" style="fill:none;stroke:#000;stroke-linejoin:round;stroke-width:0.75px;stroke-dasharray:3.008284091949463,3.008284091949463,3.008284091949463,3.008284091949463,3.008284091949463,3.008284091949463"/><line x1="228.1949" y1="146.9702" x2="65.2813" y2="146.9702" style="fill:none;stroke:#000;stroke-width:0.75px;stroke-dasharray:3.008284091949463,3.008284091949463,3.008284091949463,3.008284091949463,3.008284091949463,3.008284091949463"/><line x1="232.4155" y1="141.6967" x2="67.3901" y2="141.6967" style="fill:none;stroke:#000;stroke-width:0.75px;stroke-dasharray:3.008284091949463,3.008284091949463,3.008284091949463,3.008284091949463,3.008284091949463,3.008284091949463"/><line x1="23.1021" y1="192.3111" x2="20.4668" y2="192.3111" style="fill:none;stroke:#000;stroke-width:0.75px;stroke-dasharray:3.008284091949463,3.008284091949463,3.008284091949463,3.008284091949463,3.008284091949463,3.008284091949463"/><path d="M207.6363,198.099H28.9021c-6.3264,0-5.803-8.4232-5.803-8.4232H213.4362S213.4362,198.099,207.6363,198.099Z" style="fill:none;stroke:#000;stroke-linejoin:bevel;stroke-width:0.75px;stroke-dasharray:3.008284091949463,3.008284091949463,3.008284091949463,3.008284091949463,3.008284091949463,3.008284091949463"/><path d="M135.4043,189.1462l31.6351-31.1057h29.5233l-28.9968,31.6351Z" style="fill:#fff;stroke:#000;stroke-linejoin:round;stroke-width:0.75px"/><path d="M197.6186,85.8086l-28.47,28.47a6.6844,6.6844,0,0,0-1.5823,4.2116v71.185l31.6351-31.6351V87.391S199.201,84.2262,197.6186,85.8086Z" style="fill:#fff;stroke:#000;stroke-linejoin:round;stroke-width:0.75px"/><path d="M139.0955,195.4726h19.5087c7.3823,0,6.8528-8.9617,6.8528-8.9617H131.7131S131.7131,195.4726,139.0955,195.4726Z" style="fill:#fff;stroke:#000;stroke-linejoin:bevel;stroke-width:0.75px"/><path d="M86.8986,158.0405h29.5263L85.3162,189.1462H54.2106" style="fill:#fff;stroke:#000;stroke-linejoin:round;stroke-width:0.75px"/><path d="M85.8457,85.8086l-28.47,28.47a6.6851,6.6851,0,0,0-1.5824,4.2116v71.185l31.6352-31.6351V87.391S87.4281,84.2262,85.8457,85.8086Z" style="fill:#fff;stroke:#000;stroke-linejoin:round;stroke-width:0.75px"/><path d="M80.0457,195.4726H60.54c-7.3823,0-6.8589-8.9617-6.8589-8.9617h33.747C86.9016,186.5109,86.9016,195.4726,80.0457,195.4726Z" style="fill:#fff;stroke:#000;stroke-linejoin:bevel;stroke-width:0.75px"/></svg>