<svg xmlns="http://www.w3.org/2000/svg" width="100mm" height="100mm" viewBox="0 0 283.4646 283.4646"><title>shelf-36</title><polygon points="245.47 139.174 67.239 139.174 30.546 166.138 216.373 166.138 245.47 139.174" style="fill:#fff;stroke:#000;stroke-linecap:round;stroke-linejoin:round;stroke-width:0.75px"/><line x1="220.7584" y1="144.4945" x2="66.4459" y2="144.5337" style="fill:#fff;stroke:#000;stroke-linecap:round;stroke-linejoin:round;stroke-width:0.75px"/><path d="M208.1987,170.0746H39.2118c-5.9394,0-5.6641-7.8726-5.6641-7.8726H213.865S213.7168,170.0746,208.1987,170.0746Z" style="fill:#fff;stroke:#000;stroke-linecap:round;stroke-linejoin:round;stroke-width:0.75px"/><path d="M65.9946,144.5715,30.7227,166.1383v-28.89s-.3052-1.9441,2.2729-4.5223L65.94,113.7193c1.1709-1.1583,1.328,1.1109,1.328,1.1109a9.4092,9.4092,0,0,1-.3007,1.8422v23.1959c.2614.4277.65,3.4944-.5211,4.6654C66.4459,144.5337,66.3766,144.1922,65.9946,144.5715Z" style="fill:#fff;stroke:#000;stroke-linecap:round;stroke-linejoin:round;stroke-width:0.75px"/><path d="M65.9968,117.1879c-.3547.3537-.6406.0742-.6406-.6331a3.07,3.07,0,0,1,.6406-1.91c.35-.3473.6363-.0678.6363.6352A3.0834,3.0834,0,0,1,65.9968,117.1879Z" style="fill:#fff;stroke:#000;stroke-linecap:round;stroke-linejoin:round;stroke-width:0.75px"/><path d="M65.9968,143.2964c-.3547.3536-.6406.0741-.6406-.6332a3.07,3.07,0,0,1,.6406-1.91c.35-.3472.6363-.0677.6363.6352A3.0837,3.0837,0,0,1,65.9968,143.2964Z" style="fill:#fff;stroke:#000;stroke-linecap:round;stroke-linejoin:round;stroke-width:0.75px"/><path d="M251.645,144.5715l-35.2719,21.5668v-28.89s-.3053-1.9441,2.2729-4.5223l32.944-19.0064c1.171-1.1583,1.3281,1.1109,1.3281,1.1109a9.4051,9.4051,0,0,1-.3008,1.8422v23.1959c.2615.4277.65,3.4944-.521,4.6654C252.0963,144.5337,252.027,144.1922,251.645,144.5715Z" style="fill:#fff;stroke:#000;stroke-linecap:round;stroke-linejoin:round;stroke-width:0.75px"/><path d="M251.6472,117.1879c-.3547.3537-.6406.0742-.6406-.6331a3.07,3.07,0,0,1,.6406-1.91c.35-.3473.6363-.0678.6363.6352A3.0834,3.0834,0,0,1,251.6472,117.1879Z" style="fill:#fff;stroke:#000;stroke-linecap:round;stroke-linejoin:round;stroke-width:0.75px"/><path d="M251.6472,143.2964c-.3547.3536-.6406.0741-.6406-.6332a3.07,3.07,0,0,1,.6406-1.91c.35-.3472.6363-.0677.6363.6352A3.0837,3.0837,0,0,1,251.6472,143.2964Z" style="fill:#fff;stroke:#000;stroke-linecap:round;stroke-linejoin:round;stroke-width:0.75px"/></svg>