<svg xmlns="http://www.w3.org/2000/svg" width="100mm" height="100mm" viewBox="0 0 283.4646 283.4646"><title>shelf-22</title><polygon points="238.657 143.15 60.426 143.15 37.601 162.163 223.269 162.163 238.657 143.15" style="fill:#fff;stroke:#000;stroke-linecap:round;stroke-linejoin:round;stroke-width:0.75px"/><path d="M59.0054,148.5469l-21.4048,13.616v-28.89s-.3052-1.9441,2.273-4.5223L58.95,117.6947c1.171-1.1583,1.3281,1.111,1.3281,1.111a9.4047,9.4047,0,0,1-.3008,1.8421v23.196c.2615.4277.65,3.4944-.521,4.6653C59.4567,148.5091,59.3874,148.1676,59.0054,148.5469Z" style="fill:#fff;stroke:#000;stroke-linecap:round;stroke-linejoin:round;stroke-width:0.75px"/><path d="M59.0076,121.1633c-.3547.3537-.6406.0742-.6406-.6331a3.07,3.07,0,0,1,.6406-1.91c.35-.3472.6363-.0678.6363.6352A3.0831,3.0831,0,0,1,59.0076,121.1633Z" style="fill:#fff;stroke:#000;stroke-linecap:round;stroke-linejoin:round;stroke-width:0.75px"/><path d="M59.0076,147.2718c-.3547.3536-.6406.0741-.6406-.6331a3.07,3.07,0,0,1,.6406-1.91c.35-.3473.6363-.0678.6363.6351A3.0837,3.0837,0,0,1,59.0076,147.2718Z" style="fill:#fff;stroke:#000;stroke-linecap:round;stroke-linejoin:round;stroke-width:0.75px"/><path d="M244.6021,148.5469l-21.4048,13.616v-28.89s-.3052-1.9441,2.2729-4.5223l19.0769-11.0556c1.171-1.1583,1.328,1.111,1.328,1.111a9.4,9.4,0,0,1-.3007,1.8421v23.196c.2615.4277.65,3.4944-.521,4.6653C245.0534,148.5091,244.9841,148.1676,244.6021,148.5469Z" style="fill:#fff;stroke:#000;stroke-linecap:round;stroke-linejoin:round;stroke-width:0.75px"/><path d="M244.6043,121.1633c-.3548.3537-.6406.0742-.6406-.6331a3.0691,3.0691,0,0,1,.6406-1.91c.35-.3472.6362-.0678.6362.6352A3.0831,3.0831,0,0,1,244.6043,121.1633Z" style="fill:#fff;stroke:#000;stroke-linecap:round;stroke-linejoin:round;stroke-width:0.75px"/><path d="M244.6043,147.2718c-.3548.3536-.6406.0741-.6406-.6331a3.0691,3.0691,0,0,1,.6406-1.91c.35-.3473.6362-.0678.6362.6351A3.0836,3.0836,0,0,1,244.6043,147.2718Z" style="fill:#fff;stroke:#000;stroke-linecap:round;stroke-linejoin:round;stroke-width:0.75px"/><line x1="223.1973" y1="148.4699" x2="59.4567" y2="148.5091" style="fill:#fff;stroke:#000;stroke-linecap:round;stroke-linejoin:round;stroke-width:0.75px"/><path d="M215.7123,166.0992H46.7254c-5.9394,0-5.6641-7.8726-5.6641-7.8726H221.3786S221.23,166.0992,215.7123,166.0992Z" style="fill:#fff;stroke:#000;stroke-linecap:round;stroke-linejoin:round;stroke-width:0.75px"/></svg>